<svg width="1920" height="1080" viewBox="0 0 1920 1080" fill="none" xmlns="http://www.w3.org/2000/svg">
  <!-- Salesforce Lightning Experience Outer Shell -->
  <rect width="1920" height="1080" fill="#F3F3F3"/>

  <!-- Global Header (SLDS Header) -->
  <rect width="1920" height="50" fill="#FFFFFF" stroke="#D8DDE6"/>
  <g transform="translate(18, 15)">
    <circle cx="3" cy="3" r="2.5" fill="#706E6B"/>
    <circle cx="10" cy="3" r="2.5" fill="#706E6B"/>
    <circle cx="17" cy="3" r="2.5" fill="#706E6B"/>
    <circle cx="3" cy="10" r="2.5" fill="#706E6B"/>
    <circle cx="10" cy="10" r="2.5" fill="#706E6B"/>
    <circle cx="17" cy="10" r="2.5" fill="#706E6B"/>
    <circle cx="3" cy="17" r="2.5" fill="#706E6B"/>
    <circle cx="10" cy="17" r="2.5" fill="#706E6B"/>
    <circle cx="17" cy="17" r="2.5" fill="#706E6B"/>
  </g>
  <text x="56" y="32" font-family="-apple-system, BlinkMacSystemFont, 'Segoe UI', Roboto, sans-serif" font-weight="700" font-size="16" fill="#0176D3">Salesforce</text>
  
  <rect x="520" y="9" width="480" height="32" rx="4" fill="#F3F3F3" stroke="#C9C9C9"/>
  <g transform="translate(534, 18)">
    <circle cx="5" cy="5" r="4" fill="none" stroke="#706E6B" stroke-width="1.4"/>
    <line x1="8" y1="8" x2="12" y2="12" stroke="#706E6B" stroke-width="1.4" stroke-linecap="round"/>
  </g>
  <text x="554" y="30" font-family="-apple-system, sans-serif" font-size="13" fill="#706E6B">Search Salesforce...</text>

  <g transform="translate(1820, 13)">
    <circle cx="12" cy="12" r="12" fill="#0176D3"/>
    <text x="8" y="16" font-family="-apple-system, sans-serif" font-weight="700" font-size="11" fill="#FFFFFF">IS</text>
  </g>

  <!-- Navigation Bar (Tabs) -->
  <rect y="50" width="1920" height="44" fill="#FFFFFF" stroke="#D8DDE6"/>
  <g transform="translate(24, 50)" font-family="-apple-system, sans-serif" font-size="13">
    <text x="12" y="27" font-weight="600" fill="#706E6B">Home</text>
    <text x="80" y="27" font-weight="600" fill="#706E6B">Accounts</text>
    <text x="165" y="27" font-weight="600" fill="#706E6B">Opportunities</text>
    
    <!-- Active Tab: CrossDiffAction -->
    <rect x="270" y="0" width="165" height="44" fill="#F3F3F3"/>
    <line x1="270" y1="42" x2="435" y2="42" stroke="#0176D3" stroke-width="3"/>
    <g transform="translate(284, 17)" fill="#0176D3">
      <rect x="0" y="0" width="2.5" height="2.5"/>
      <rect x="4" y="0" width="2.5" height="2.5"/>
      <rect x="8" y="0" width="2.5" height="2.5"/>
      <rect x="0" y="4" width="2.5" height="2.5"/>
      <rect x="4" y="4" width="2.5" height="2.5"/>
      <rect x="8" y="4" width="2.5" height="2.5"/>
      <rect x="0" y="8" width="2.5" height="2.5"/>
      <rect x="4" y="8" width="2.5" height="2.5"/>
      <rect x="8" y="8" width="2.5" height="2.5"/>
    </g>
    <text x="300" y="27" font-weight="700" fill="#0176D3">CrossDiffAction</text>

    <text x="465" y="27" font-weight="600" fill="#706E6B">Reports</text>
    <text x="545" y="27" font-weight="600" fill="#706E6B">Dashboards</text>
  </g>

  <!-- Breadcrumb Bar -->
  <rect y="94" width="1920" height="36" fill="#F8FAFC" stroke="#E2E8F0"/>
  <text x="32" y="117" font-family="-apple-system, sans-serif" font-size="12" fill="#64748B">
    Apps &gt; Utilities &gt; CrossDiffAction &gt; <tspan font-weight="700" fill="#D97706">Diff Finder Mode (Discrepancies Only)</tspan>
  </text>

  <!-- Main Work Area Container (Lightning Card) -->
  <g transform="translate(32, 142)">
    <rect width="1856" height="895" rx="8" fill="#FFFFFF" stroke="#CBD5E1" filter="url(#app_shadow2)"/>

    <!-- Component Header -->
    <g transform="translate(24, 20)">
      <rect x="0" y="0" width="36" height="36" rx="6" fill="#0176D3"/>
      <g transform="translate(8, 8)" fill="#FFFFFF">
        <rect x="0" y="0" width="4.5" height="4.5" rx="0.8"/>
        <rect x="7.5" y="0" width="4.5" height="4.5" rx="0.8"/>
        <rect x="15" y="0" width="4.5" height="4.5" rx="0.8"/>
        <rect x="0" y="7.5" width="4.5" height="4.5" rx="0.8"/>
        <rect x="7.5" y="7.5" width="4.5" height="4.5" rx="0.8"/>
        <rect x="15" y="7.5" width="4.5" height="4.5" rx="0.8"/>
        <rect x="0" y="15" width="4.5" height="4.5" rx="0.8"/>
        <rect x="7.5" y="15" width="4.5" height="4.5" rx="0.8"/>
        <rect x="15" y="15" width="4.5" height="4.5" rx="0.8"/>
      </g>
      
      <text x="48" y="26" font-family="-apple-system, BlinkMacSystemFont, 'Segoe UI', sans-serif" font-weight="800" font-size="22" fill="#0F172A">CrossDiffAction</text>
      <rect x="235" y="6" width="90" height="24" rx="12" fill="#E0E7FF"/>
      <text x="246" y="22" font-family="-apple-system, sans-serif" font-weight="700" font-size="11" fill="#4338CA">ENTERPRISE</text>

      <!-- Diff Only Banner Badge -->
      <rect x="338" y="6" width="220" height="24" rx="12" fill="#FEF3C7" stroke="#F59E0B"/>
      <g transform="translate(346, 12)">
        <path d="M5 1L1 6H4L3 11L8 5H4.5L5 1Z" fill="#D97706"/>
      </g>
      <text x="360" y="22" font-family="-apple-system, sans-serif" font-weight="700" font-size="11" fill="#92400E">DIFF FINDER: 5 DISCREPANCIES</text>

      <!-- Action Buttons Right -->
      <g transform="translate(1330, 0)">
        <rect x="0" y="2" width="110" height="32" rx="4" fill="#FFFFFF" stroke="#CBD5E1"/>
        <g transform="translate(14, 11)">
          <path d="M1 5A4 4 0 1 1 5 9" fill="none" stroke="#475569" stroke-width="1.4" stroke-linecap="round"/>
          <polyline points="1,2 1,5 4,5" fill="none" stroke="#475569" stroke-width="1.4" stroke-linecap="round" stroke-linejoin="round"/>
        </g>
        <text x="28" y="23" font-family="-apple-system, sans-serif" font-weight="600" font-size="12" fill="#475569">Refresh (F5)</text>

        <rect x="122" y="2" width="130" height="32" rx="4" fill="#FFFFFF" stroke="#CBD5E1"/>
        <g transform="translate(134, 11)">
          <rect x="2" y="2" width="7" height="9" rx="1" fill="none" stroke="#475569" stroke-width="1.2"/>
          <path d="M4.5 2V1H6.5V2" fill="none" stroke="#475569" stroke-width="1.2"/>
        </g>
        <text x="150" y="23" font-family="-apple-system, sans-serif" font-weight="600" font-size="12" fill="#475569">Copy Summary</text>

        <rect x="264" y="2" width="115" height="32" rx="4" fill="#0176D3"/>
        <g transform="translate(274, 11)">
          <path d="M1 7V9C1 9.5 1.5 10 2 10H8C8.5 10 9 9.5 9 9V7M5 1V7M3 5L5 7L7 5" fill="none" stroke="#FFFFFF" stroke-width="1.3" stroke-linecap="round" stroke-linejoin="round"/>
        </g>
        <text x="290" y="23" font-family="-apple-system, sans-serif" font-weight="700" font-size="12" fill="#FFFFFF">Export XLSX</text>

        <rect x="381" y="2" width="32" height="32" rx="4" fill="#0176D3"/>
        <polygon points="393,17 401,17 397,21" fill="#FFFFFF"/>
      </g>
    </g>

    <!-- Preset Toolbar Bar -->
    <g transform="translate(24, 76)">
      <rect width="1808" height="38" rx="6" fill="#F8FAFC" stroke="#CBD5E1" stroke-dasharray="4 4"/>
      <g transform="translate(16, 11)">
        <path d="M1 1C1 0.7 1.3 0.5 1.6 0.5H5L6.5 2H12.4C12.7 2 13 2.3 13 2.6V10C13 10.3 12.7 10.5 12.4 10.5H1.6C1.3 10.5 1 10.3 1 10V1Z" fill="#F59E0B"/>
      </g>
      <text x="36" y="24" font-family="-apple-system, sans-serif" font-weight="700" font-size="13" fill="#334155">Comparison Preset:</text>
      
      <rect x="180" y="6" width="340" height="26" rx="4" fill="#FFFFFF" stroke="#CBD5E1"/>
      <text x="192" y="23" font-family="-apple-system, sans-serif" font-size="12" fill="#0F172A">Enterprise Account Q3 Benchmark (Global)</text>
      <polygon points="498,17 504,17 501,21" fill="#64748B"/>

      <rect x="532" y="8" width="105" height="22" rx="4" fill="#0F172A"/>
      <g transform="translate(540, 11)">
        <path d="M2.5 3.5V2C2.5 1.2 3.1 0.5 4 0.5C4.9 0.5 5.5 1.2 5.5 2V3.5M1.5 3.5H6.5C6.9 3.5 7.2 3.8 7.2 4.2V7.2C7.2 7.6 6.9 8 6.5 8H1.5C1.1 8 0.8 7.6 0.8 7.2V4.2C0.8 3.8 1.1 3.5 1.5 3.5Z" fill="none" stroke="#F8FAFC" stroke-width="1"/>
      </g>
      <text x="552" y="23" font-family="-apple-system, sans-serif" font-weight="700" font-size="10" fill="#F8FAFC">GLOBAL LOCKED</text>
    </g>

    <!-- Main Controls Bar with Diff Only Activated -->
    <g transform="translate(24, 126)">
      <rect width="1808" height="52" rx="6" fill="#FFFBEB" stroke="#FDE68A"/>
      
      <!-- Object Picker -->
      <text x="16" y="31" font-family="-apple-system, sans-serif" font-weight="700" font-size="12" fill="#92400E">OBJECT:</text>
      <rect x="80" y="10" width="160" height="32" rx="4" fill="#FFFFFF" stroke="#CBD5E1"/>
      <g transform="translate(90, 18)">
        <path d="M1 12V2C1 1.45 1.45 1 2 1H7C7.55 1 8 1.45 8 2V12M8 5H11C11.55 5 12 5.45 12 6V12M0 12H13" fill="none" stroke="#475569" stroke-width="1.2"/>
        <rect x="2.5" y="3" width="1.5" height="1.5" fill="#475569"/>
        <rect x="5" y="3" width="1.5" height="1.5" fill="#475569"/>
        <rect x="2.5" y="6" width="1.5" height="1.5" fill="#475569"/>
        <rect x="5" y="6" width="1.5" height="1.5" fill="#475569"/>
      </g>
      <text x="108" y="31" font-family="-apple-system, sans-serif" font-weight="600" font-size="13" fill="#0F172A">Account</text>
      <polygon points="218,24 224,24 221,28" fill="#64748B"/>

      <!-- Record Search -->
      <rect x="256" y="10" width="280" height="32" rx="4" fill="#FFFFFF" stroke="#CBD5E1"/>
      <g transform="translate(268, 19)">
        <circle cx="5" cy="5" r="3.5" fill="none" stroke="#94A3B8" stroke-width="1.3"/>
        <line x1="7.5" y1="7.5" x2="11" y2="11" stroke="#94A3B8" stroke-width="1.3" stroke-linecap="round"/>
      </g>
      <text x="286" y="30" font-family="-apple-system, sans-serif" font-size="12" fill="#94A3B8">Filter divergent fields...</text>

      <g transform="translate(1360, 10)">
        <rect x="0" y="0" width="110" height="32" rx="4" fill="#FFFFFF" stroke="#CBD5E1"/>
        <g transform="translate(10, 10)" fill="#475569">
          <rect x="0" y="0" width="3" height="3"/>
          <rect x="4.5" y="0" width="3" height="3"/>
          <rect x="0" y="4.5" width="3" height="3"/>
          <rect x="4.5" y="4.5" width="3" height="3"/>
        </g>
        <text x="24" y="21" font-family="-apple-system, sans-serif" font-weight="600" font-size="12" fill="#475569">Transpose</text>

        <rect x="116" y="0" width="75" height="32" rx="4" fill="#FFFFFF" stroke="#CBD5E1"/>
        <g transform="translate(126, 11)" fill="#475569">
          <rect x="0" y="0" width="4" height="4"/>
          <rect x="5" y="0" width="4" height="4"/>
          <rect x="0" y="5" width="4" height="4"/>
          <rect x="5" y="5" width="4" height="4"/>
        </g>
        <text x="139" y="21" font-family="-apple-system, sans-serif" font-weight="600" font-size="12" fill="#475569">Grid</text>

        <!-- ACTIVE DIFF ONLY BUTTON -->
        <rect x="198" y="0" width="125" height="32" rx="4" fill="#F59E0B" stroke="#D97706"/>
        <g transform="translate(208, 10)">
          <path d="M5 1L1 6H4L3 11L8 5H4.5L5 1Z" fill="#FFFFFF"/>
        </g>
        <text x="224" y="21" font-family="-apple-system, sans-serif" font-weight="800" font-size="12" fill="#FFFFFF">Diff Only (ON)</text>

        <rect x="330" y="0" width="65" height="32" rx="4" fill="#FFFFFF" stroke="#CBD5E1"/>
        <g transform="translate(338, 11)">
          <path d="M1 7L1.5 9L3 8.5L8 3.5L6.5 2L1 7Z" fill="none" stroke="#475569" stroke-width="1.1"/>
        </g>
        <text x="350" y="21" font-family="-apple-system, sans-serif" font-weight="600" font-size="12" fill="#475569">Edit</text>
      </g>
    </g>

    <!-- Transposed Matrix Table Container (DIFF ONLY ROWS) -->
    <g transform="translate(24, 192)">
      <rect width="1808" height="635" rx="6" fill="#FFFFFF" stroke="#FDE68A"/>

      <!-- Matrix Header Row -->
      <rect width="1808" height="48" fill="#FEF3C7" stroke="#FDE68A"/>
      <text x="20" y="30" font-family="-apple-system, sans-serif" font-weight="800" font-size="13" fill="#92400E">DIVERGENT FIELD (Y-AXIS)</text>
      
      <!-- Column 1: Base Record -->
      <g transform="translate(380, 0)">
        <rect x="0" y="0" width="350" height="48" fill="#EFF6FF" stroke="#BFDBFE"/>
        <text x="18" y="24" font-family="-apple-system, sans-serif" font-weight="800" font-size="13" fill="#1D4ED8">Acme Corporation</text>
        <rect x="230" y="12" width="105" height="24" rx="12" fill="#DBEAFE"/>
        <polygon points="242,20 243.5,22.8 246.5,23 244.2,25 244.8,28 242,26.4 239.2,28 239.8,25 237.5,23 240.5,22.8" fill="#1E40AF"/>
        <text x="252" y="28" font-family="-apple-system, sans-serif" font-weight="700" font-size="10" fill="#1E40AF">BASELINE</text>
      </g>

      <!-- Column 2 -->
      <g transform="translate(735, 0)">
        <text x="18" y="24" font-family="-apple-system, sans-serif" font-weight="700" font-size="13" fill="#0F172A">Global Media Inc</text>
        <text x="18" y="40" font-family="-apple-system, sans-serif" font-size="10" fill="#64748B">ID: 0015g00000XyZ1</text>
      </g>

      <!-- Column 3 -->
      <g transform="translate(1090, 0)">
        <text x="18" y="24" font-family="-apple-system, sans-serif" font-weight="700" font-size="13" fill="#0F172A">Apex Logistics Ltd</text>
        <text x="18" y="40" font-family="-apple-system, sans-serif" font-size="10" fill="#64748B">ID: 0015g00000XyZ2</text>
      </g>

      <!-- Column 4 -->
      <g transform="translate(1445, 0)">
        <text x="18" y="24" font-family="-apple-system, sans-serif" font-weight="700" font-size="13" fill="#0F172A">CloudPeak Systems</text>
        <text x="18" y="40" font-family="-apple-system, sans-serif" font-size="10" fill="#64748B">ID: 0015g00000XyZ3</text>
      </g>

      <!-- Diff Rows Only -->
      <!-- Diff Row 1: Account Type -->
      <g transform="translate(0, 48)">
        <rect width="1808" height="64" fill="#FFFDF5" stroke="#FDE68A"/>
        <text x="20" y="36" font-family="-apple-system, sans-serif" font-weight="800" font-size="14" fill="#92400E">Account Type</text>
        <text x="20" y="52" font-family="-apple-system, sans-serif" font-size="11" fill="#B45309">API: Type (Picklist)</text>
        
        <rect x="395" y="14" width="200" height="36" rx="4" fill="#EFF6FF" stroke="#3B82F6"/>
        <text x="407" y="37" font-family="-apple-system, sans-serif" font-weight="700" font-size="13" fill="#1D4ED8">Customer - Direct (Base)</text>

        <rect x="745" y="14" width="200" height="36" rx="4" fill="#FEF3C7" stroke="#F59E0B"/>
        <text x="757" y="37" font-family="-apple-system, sans-serif" font-weight="800" font-size="13" fill="#92400E">Customer - Channel</text>
        <g transform="translate(915, 23)">
          <path d="M4 1L0.5 8H7.5L4 1Z" fill="#F59E0B" stroke="#D97706" stroke-width="0.5"/>
          <line x1="4" y1="3" x2="4" y2="5.5" stroke="#FFFFFF" stroke-width="1"/>
          <circle cx="4" cy="6.8" r="0.5" fill="#FFFFFF"/>
        </g>

        <rect x="1100" y="14" width="180" height="36" rx="4" fill="#FEF3C7" stroke="#F59E0B"/>
        <text x="1112" y="37" font-family="-apple-system, sans-serif" font-weight="800" font-size="13" fill="#92400E">Prospect [Diff]</text>
        <g transform="translate(1245, 23)">
          <path d="M4 1L0.5 8H7.5L4 1Z" fill="#F59E0B" stroke="#D97706" stroke-width="0.5"/>
          <line x1="4" y1="3" x2="4" y2="5.5" stroke="#FFFFFF" stroke-width="1"/>
          <circle cx="4" cy="6.8" r="0.5" fill="#FFFFFF"/>
        </g>

        <rect x="1455" y="14" width="200" height="36" rx="4" fill="#FEF3C7" stroke="#F59E0B"/>
        <text x="1467" y="37" font-family="-apple-system, sans-serif" font-weight="800" font-size="13" fill="#92400E">Technology Partner</text>
        <g transform="translate(1620, 23)">
          <path d="M4 1L0.5 8H7.5L4 1Z" fill="#F59E0B" stroke="#D97706" stroke-width="0.5"/>
          <line x1="4" y1="3" x2="4" y2="5.5" stroke="#FFFFFF" stroke-width="1"/>
          <circle cx="4" cy="6.8" r="0.5" fill="#FFFFFF"/>
        </g>
      </g>

      <!-- Diff Row 2: Annual Revenue -->
      <g transform="translate(0, 112)">
        <rect width="1808" height="64" fill="#FFFDF5" stroke="#FDE68A"/>
        <text x="20" y="36" font-family="-apple-system, sans-serif" font-weight="800" font-size="14" fill="#92400E">Annual Revenue</text>
        <text x="20" y="52" font-family="-apple-system, sans-serif" font-size="11" fill="#B45309">API: AnnualRevenue (Currency)</text>

        <rect x="395" y="14" width="170" height="36" rx="4" fill="#EFF6FF" stroke="#3B82F6"/>
        <text x="407" y="37" font-family="-apple-system, sans-serif" font-weight="700" font-size="14" fill="#1D4ED8">$12,500,000 (Base)</text>

        <rect x="745" y="14" width="180" height="36" rx="4" fill="#FEF3C7" stroke="#F59E0B"/>
        <text x="757" y="37" font-family="-apple-system, sans-serif" font-weight="800" font-size="14" fill="#92400E">$4,200,000 [-66.4%]</text>

        <rect x="1100" y="14" width="180" height="36" rx="4" fill="#FEF3C7" stroke="#F59E0B"/>
        <text x="1112" y="37" font-family="-apple-system, sans-serif" font-weight="800" font-size="14" fill="#92400E">$8,900,000 [-28.8%]</text>

        <rect x="1455" y="14" width="180" height="36" rx="4" fill="#FEF3C7" stroke="#F59E0B"/>
        <text x="1467" y="37" font-family="-apple-system, sans-serif" font-weight="800" font-size="14" fill="#92400E">$24,100,000 [+92.8%]</text>
      </g>

      <!-- Diff Row 3: Industry -->
      <g transform="translate(0, 176)">
        <rect width="1808" height="64" fill="#FFFDF5" stroke="#FDE68A"/>
        <text x="20" y="36" font-family="-apple-system, sans-serif" font-weight="800" font-size="14" fill="#92400E">Industry</text>
        <text x="20" y="52" font-family="-apple-system, sans-serif" font-size="11" fill="#B45309">API: Industry (Picklist)</text>

        <text x="407" y="37" font-family="-apple-system, sans-serif" font-weight="700" font-size="13" fill="#1E293B">Technology (Base)</text>

        <rect x="745" y="14" width="180" height="36" rx="4" fill="#FEF3C7" stroke="#F59E0B"/>
        <text x="757" y="37" font-family="-apple-system, sans-serif" font-weight="800" font-size="13" fill="#92400E">Communications</text>
        <g transform="translate(895, 23)">
          <path d="M4 1L0.5 8H7.5L4 1Z" fill="#F59E0B" stroke="#D97706" stroke-width="0.5"/>
          <line x1="4" y1="3" x2="4" y2="5.5" stroke="#FFFFFF" stroke-width="1"/>
          <circle cx="4" cy="6.8" r="0.5" fill="#FFFFFF"/>
        </g>

        <rect x="1100" y="14" width="180" height="36" rx="4" fill="#FEF3C7" stroke="#F59E0B"/>
        <text x="1112" y="37" font-family="-apple-system, sans-serif" font-weight="800" font-size="13" fill="#92400E">Transportation</text>
        <g transform="translate(1240, 23)">
          <path d="M4 1L0.5 8H7.5L4 1Z" fill="#F59E0B" stroke="#D97706" stroke-width="0.5"/>
          <line x1="4" y1="3" x2="4" y2="5.5" stroke="#FFFFFF" stroke-width="1"/>
          <circle cx="4" cy="6.8" r="0.5" fill="#FFFFFF"/>
        </g>

        <text x="1467" y="37" font-family="-apple-system, sans-serif" font-weight="600" font-size="13" fill="#64748B">Technology (= Base)</text>
      </g>

      <!-- Diff Row 4: Rating -->
      <g transform="translate(0, 240)">
        <rect width="1808" height="64" fill="#FFFDF5" stroke="#FDE68A"/>
        <text x="20" y="36" font-family="-apple-system, sans-serif" font-weight="800" font-size="14" fill="#92400E">Rating</text>
        <text x="20" y="52" font-family="-apple-system, sans-serif" font-size="11" fill="#B45309">API: Rating (Picklist)</text>

        <text x="407" y="37" font-family="-apple-system, sans-serif" font-weight="700" font-size="13" fill="#1E293B">Hot (Base)</text>

        <rect x="745" y="14" width="150" height="36" rx="4" fill="#FEF3C7" stroke="#F59E0B"/>
        <text x="757" y="37" font-family="-apple-system, sans-serif" font-weight="800" font-size="13" fill="#92400E">Warm [Diff]</text>
        <g transform="translate(860, 23)">
          <path d="M4 1L0.5 8H7.5L4 1Z" fill="#F59E0B" stroke="#D97706" stroke-width="0.5"/>
          <line x1="4" y1="3" x2="4" y2="5.5" stroke="#FFFFFF" stroke-width="1"/>
          <circle cx="4" cy="6.8" r="0.5" fill="#FFFFFF"/>
        </g>

        <text x="1112" y="37" font-family="-apple-system, sans-serif" font-weight="600" font-size="13" fill="#64748B">Hot (= Base)</text>
        <text x="1467" y="37" font-family="-apple-system, sans-serif" font-weight="600" font-size="13" fill="#64748B">Hot (= Base)</text>
      </g>

      <!-- Diff Row 5: SLA Expiration Date -->
      <g transform="translate(0, 304)">
        <rect width="1808" height="64" fill="#FFFDF5" stroke="#FDE68A"/>
        <text x="20" y="36" font-family="-apple-system, sans-serif" font-weight="800" font-size="14" fill="#92400E">SLA Expiration Date</text>
        <text x="20" y="52" font-family="-apple-system, sans-serif" font-size="11" fill="#B45309">API: SLAExpirationDate__c (Date)</text>

        <text x="407" y="37" font-family="-apple-system, sans-serif" font-weight="700" font-size="13" fill="#1E293B">2027-03-31 (Base)</text>

        <rect x="745" y="14" width="160" height="36" rx="4" fill="#FEF3C7" stroke="#F59E0B"/>
        <text x="757" y="37" font-family="-apple-system, sans-serif" font-weight="800" font-size="13" fill="#92400E">2026-11-30</text>
        <g transform="translate(865, 23)">
          <path d="M4 1L0.5 8H7.5L4 1Z" fill="#F59E0B" stroke="#D97706" stroke-width="0.5"/>
          <line x1="4" y1="3" x2="4" y2="5.5" stroke="#FFFFFF" stroke-width="1"/>
          <circle cx="4" cy="6.8" r="0.5" fill="#FFFFFF"/>
        </g>

        <rect x="1100" y="14" width="160" height="36" rx="4" fill="#FEF3C7" stroke="#F59E0B"/>
        <text x="1112" y="37" font-family="-apple-system, sans-serif" font-weight="800" font-size="13" fill="#92400E">2027-01-15</text>
        <g transform="translate(1220, 23)">
          <path d="M4 1L0.5 8H7.5L4 1Z" fill="#F59E0B" stroke="#D97706" stroke-width="0.5"/>
          <line x1="4" y1="3" x2="4" y2="5.5" stroke="#FFFFFF" stroke-width="1"/>
          <circle cx="4" cy="6.8" r="0.5" fill="#FFFFFF"/>
        </g>

        <rect x="1455" y="14" width="160" height="36" rx="4" fill="#FEF3C7" stroke="#F59E0B"/>
        <text x="1467" y="37" font-family="-apple-system, sans-serif" font-weight="800" font-size="13" fill="#92400E">2027-08-31</text>
        <g transform="translate(1575, 23)">
          <path d="M4 1L0.5 8H7.5L4 1Z" fill="#F59E0B" stroke="#D97706" stroke-width="0.5"/>
          <line x1="4" y1="3" x2="4" y2="5.5" stroke="#FFFFFF" stroke-width="1"/>
          <circle cx="4" cy="6.8" r="0.5" fill="#FFFFFF"/>
        </g>
      </g>
    </g>

    <!-- Bottom Status Bar -->
    <g transform="translate(24, 835)">
      <rect width="1808" height="40" rx="4" fill="#FFFBEB" stroke="#FDE68A"/>
      <g transform="translate(16, 12)">
        <path d="M5 1L1 6H4L3 11L8 5H4.5L5 1Z" fill="#D97706"/>
      </g>
      <text x="32" y="25" font-family="-apple-system, sans-serif" font-weight="700" font-size="12" fill="#92400E">
        Diff Finder Active: Displaying 5 Divergent Fields (23 Identical Matching Fields Hidden)
      </text>
      <text x="1610" y="25" font-family="-apple-system, sans-serif" font-weight="700" font-size="12" fill="#B45309">
        CrossDiff Diff Engine v0.1.0
      </text>
    </g>
  </g>

  <!-- Filter Def -->
  <defs>
    <filter id="app_shadow2" x="20" y="135" width="1880" height="915" filterUnits="userSpaceOnUse" color-interpolation-filters="sRGB">
      <feDropShadow dx="0" dy="6" stdDeviation="10" flood-color="#000000" flood-opacity="0.08"/>
    </filter>
  </defs>
</svg>
